<svg width="795" height="616" viewBox="0 0 795 616" fill="none" xmlns="http://www.w3.org/2000/svg">
<g id="undraw3_donut_love_kau1 1">
<g id="medium2-donut">
<path id="Vector" d="M281.362 375.771C276.69 367.033 268.896 360.34 259.507 357.004C250.118 353.668 239.811 353.93 230.607 357.738C221.403 361.546 213.964 368.627 209.749 377.591C205.534 386.556 204.847 396.758 207.822 406.199H212.785C213.783 406.199 214.6 407.3 214.6 408.648H215.511C216.512 408.648 217.33 409.75 217.33 411.098C217.33 412.443 216.512 413.548 215.511 413.548H214.6C214.598 413.752 214.577 413.957 214.537 414.158H218.693C219.693 414.158 220.511 415.262 220.511 416.607C220.511 417.956 219.693 419.057 218.693 419.057H214.724C220.937 426.781 229.833 431.927 239.67 433.489C249.508 435.052 259.579 432.917 267.913 427.503C276.248 422.09 282.246 413.787 284.733 404.219C287.22 394.651 286.018 384.507 281.362 375.771ZM254.15 408.655C251.663 410.048 248.854 410.777 245.999 410.772C245.427 410.771 244.855 410.743 244.287 410.686C240.355 410.278 236.699 408.49 233.98 405.644C231.261 402.798 229.657 399.082 229.458 395.166C229.26 391.251 230.479 387.393 232.896 384.291C235.314 381.189 238.769 379.045 242.64 378.248C246.511 377.451 250.541 378.053 254.004 379.945C257.467 381.836 260.134 384.893 261.523 388.564C262.912 392.235 262.933 396.277 261.581 399.961C260.229 403.645 257.593 406.729 254.15 408.655Z" fill="#C17B27"/>
<path id="Vector_2" opacity="0.2" d="M215.511 408.648C216.296 408.648 216.967 409.329 217.22 410.273C217.292 410.004 217.329 409.727 217.329 409.449C217.329 408.101 216.511 406.999 215.511 406.999H214.602C214.602 405.652 213.784 404.55 212.784 404.55H207.822C206.69 400.954 206.082 397.216 206.015 393.449C206.008 393.742 206 394.035 206 394.33C205.996 398.355 206.611 402.357 207.822 406.199H212.784C213.784 406.199 214.602 407.301 214.602 408.648H215.511Z" fill="black"/>
<path id="Vector_3" opacity="0.2" d="M246 432.352C240.355 432.358 234.773 431.176 229.623 428.884C224.473 426.592 219.872 423.242 216.124 419.056H214.722C219.892 425.489 226.95 430.169 234.92 432.448C242.89 434.726 251.378 434.491 259.207 431.775C267.037 429.059 273.821 423.996 278.621 417.288C283.421 410.579 286 402.556 286 394.33C286 394.082 285.993 393.835 285.988 393.588C285.749 403.95 281.431 413.807 273.958 421.051C266.485 428.295 256.45 432.351 246 432.352Z" fill="black"/>
<path id="Vector_4" opacity="0.2" d="M245.999 374.591C242.063 374.592 238.215 375.75 234.942 377.919C231.67 380.089 229.119 383.172 227.614 386.779C226.108 390.385 225.714 394.354 226.482 398.183C227.251 402.011 229.146 405.528 231.93 408.288C234.714 411.049 238.26 412.928 242.121 413.69C245.981 414.451 249.983 414.06 253.619 412.566C257.256 411.072 260.364 408.542 262.551 405.296C264.737 402.05 265.905 398.234 265.905 394.33C265.898 389.096 263.799 384.079 260.067 380.378C256.335 376.678 251.276 374.597 245.999 374.591V374.591ZM254.15 408.655C251.663 410.048 248.855 410.777 245.999 410.772C245.427 410.771 244.856 410.743 244.287 410.686C240.355 410.278 236.699 408.49 233.98 405.644C231.261 402.798 229.657 399.082 229.459 395.166C229.26 391.251 230.479 387.393 232.897 384.291C235.314 381.189 238.77 379.045 242.64 378.248C246.511 377.451 250.542 378.053 254.004 379.945C257.467 381.836 260.134 384.893 261.523 388.564C262.913 392.235 262.933 396.277 261.581 399.961C260.229 403.645 257.593 406.729 254.15 408.655Z" fill="black"/>
<path id="Vector_5" d="M281.362 375.113V381.712C281.362 382.194 281.217 382.665 280.946 383.064C280.674 383.463 280.287 383.773 279.837 383.952C279.386 384.132 278.891 384.174 278.416 384.072C277.941 383.971 277.508 383.731 277.172 383.383V384.135C277.172 384.895 276.867 385.624 276.325 386.162C275.783 386.699 275.048 387.001 274.282 387.001C273.515 387.001 272.78 386.699 272.238 386.162C271.696 385.624 271.391 384.895 271.391 384.135V383.508C271.041 383.82 270.608 384.024 270.144 384.097C269.679 384.17 269.203 384.107 268.774 383.917C268.344 383.727 267.98 383.418 267.724 383.026C267.468 382.635 267.333 382.178 267.333 381.712L267.217 374.698V373.08C267.217 372.821 267.113 372.572 266.929 372.389C266.744 372.205 266.493 372.102 266.232 372.102C265.97 372.102 265.72 372.205 265.535 372.389C265.35 372.572 265.246 372.821 265.246 373.08V374.698L265.13 380.562C265.13 381.202 264.874 381.817 264.417 382.269C263.961 382.722 263.341 382.977 262.695 382.977C262.05 382.977 261.43 382.722 260.974 382.269C260.517 381.817 260.261 381.202 260.261 380.562L259.963 374.698V371.7C259.963 371.275 259.793 370.868 259.49 370.567C259.187 370.267 258.776 370.098 258.348 370.098C257.919 370.098 257.509 370.267 257.206 370.567C256.903 370.868 256.733 371.275 256.733 371.7V374.698L256.551 380.562C256.551 381.064 256.393 381.554 256.1 381.963C255.806 382.372 255.391 382.68 254.912 382.844C254.434 383.008 253.915 383.02 253.43 382.878C252.944 382.736 252.515 382.447 252.203 382.052C251.818 382.54 251.258 382.863 250.639 382.952C250.021 383.041 249.391 382.89 248.882 382.53V384.135C248.882 384.895 248.578 385.624 248.036 386.162C247.494 386.699 246.758 387.001 245.992 387.001C245.225 387.001 244.49 386.699 243.948 386.162C243.406 385.624 243.101 384.895 243.101 384.135V379.182C243.102 379.734 242.911 380.27 242.561 380.7C242.211 381.13 241.723 381.427 241.178 381.543C240.633 381.659 240.065 381.586 239.568 381.337C239.071 381.087 238.676 380.676 238.447 380.172V384.135C238.447 384.894 238.142 385.623 237.6 386.16C237.058 386.697 236.323 386.998 235.557 386.998C234.791 386.998 234.056 386.697 233.514 386.16C232.972 385.623 232.667 384.894 232.667 384.135V374.698H232.65V384.135C232.65 384.895 232.346 385.624 231.804 386.162C231.262 386.699 230.527 387.001 229.76 387.001C228.993 387.001 228.258 386.699 227.716 386.162C227.174 385.624 226.869 384.895 226.869 384.135V380.205C226.635 380.703 226.236 381.106 225.74 381.349C225.243 381.591 224.677 381.658 224.137 381.539C223.596 381.42 223.113 381.121 222.766 380.693C222.42 380.264 222.231 379.731 222.232 379.182V374.698H221.984V382.755C221.984 383.515 221.679 384.244 221.137 384.782C220.595 385.319 219.86 385.621 219.093 385.621C218.327 385.621 217.591 385.319 217.049 384.782C216.507 384.244 216.203 383.515 216.203 382.755V379.182C216.203 379.823 215.946 380.437 215.49 380.89C215.033 381.342 214.414 381.597 213.768 381.597C213.122 381.597 212.503 381.342 212.046 380.89C211.59 380.437 211.333 379.823 211.333 379.182V373.866C214.904 367.722 220.07 362.64 226.293 359.147C232.516 355.654 239.569 353.879 246.718 354.006C253.868 354.134 260.852 356.159 266.945 359.87C273.037 363.582 278.016 368.846 281.362 375.113V375.113Z" fill="#00C7F9"/>
<path id="Vector_6" opacity="0.2" d="M229.76 385.621C229.38 385.621 229.004 385.547 228.654 385.403C228.303 385.259 227.984 385.048 227.716 384.781C227.447 384.515 227.234 384.199 227.089 383.851C226.944 383.504 226.869 383.131 226.869 382.754V384.249C226.869 385.01 227.174 385.739 227.716 386.276C228.258 386.814 228.993 387.116 229.76 387.116C230.526 387.116 231.262 386.814 231.804 386.276C232.346 385.739 232.65 385.01 232.65 384.249V382.754C232.65 383.131 232.576 383.504 232.43 383.851C232.285 384.199 232.072 384.515 231.804 384.781C231.535 385.048 231.217 385.259 230.866 385.403C230.515 385.547 230.139 385.621 229.76 385.621V385.621Z" fill="black"/>
<path id="Vector_7" opacity="0.2" d="M235.557 385.621C235.177 385.621 234.801 385.547 234.451 385.403C234.1 385.259 233.781 385.048 233.513 384.781C233.244 384.515 233.032 384.199 232.886 383.851C232.741 383.504 232.666 383.131 232.666 382.754V384.249C232.666 385.01 232.971 385.739 233.513 386.276C234.055 386.814 234.79 387.116 235.557 387.116C236.323 387.116 237.059 386.814 237.601 386.276C238.143 385.739 238.447 385.01 238.447 384.249V382.754C238.447 383.131 238.373 383.504 238.227 383.851C238.082 384.199 237.869 384.515 237.601 384.781C237.332 385.048 237.014 385.259 236.663 385.403C236.312 385.547 235.936 385.621 235.557 385.621Z" fill="black"/>
<path id="Vector_8" opacity="0.2" d="M226.869 378.826C226.635 379.323 226.236 379.726 225.739 379.969C225.243 380.211 224.677 380.279 224.137 380.159C223.596 380.04 223.113 379.741 222.766 379.313C222.42 378.884 222.232 378.351 222.232 377.802V379.297C222.232 379.846 222.42 380.379 222.766 380.808C223.113 381.236 223.596 381.535 224.137 381.654C224.677 381.774 225.243 381.706 225.739 381.464C226.236 381.221 226.635 380.818 226.869 380.32V378.826Z" fill="black"/>
<path id="Vector_9" opacity="0.2" d="M232.667 373.318H232.65V374.813H232.667V373.318Z" fill="black"/>
<path id="Vector_10" opacity="0.2" d="M216.203 377.802C216.203 378.443 215.946 379.057 215.49 379.51C215.033 379.963 214.414 380.217 213.768 380.217C213.122 380.217 212.503 379.963 212.046 379.51C211.59 379.057 211.333 378.443 211.333 377.802V379.297C211.333 379.937 211.59 380.552 212.046 381.005C212.503 381.457 213.122 381.712 213.768 381.712C214.414 381.712 215.033 381.457 215.49 381.005C215.946 380.552 216.203 379.937 216.203 379.297V377.802Z" fill="black"/>
<path id="Vector_11" opacity="0.2" d="M222.232 373.318H221.984V374.813H222.232V373.318Z" fill="black"/>
<path id="Vector_12" opacity="0.2" d="M219.093 384.242C218.713 384.242 218.338 384.168 217.987 384.024C217.636 383.879 217.317 383.668 217.049 383.402C216.781 383.136 216.568 382.82 216.423 382.472C216.277 382.124 216.203 381.752 216.203 381.375V382.87C216.203 383.63 216.507 384.359 217.049 384.897C217.591 385.434 218.326 385.736 219.093 385.736C219.86 385.736 220.595 385.434 221.137 384.897C221.679 384.359 221.983 383.63 221.983 382.87V381.375C221.983 381.752 221.909 382.124 221.763 382.472C221.618 382.82 221.405 383.136 221.137 383.402C220.868 383.668 220.55 383.879 220.199 384.024C219.848 384.168 219.473 384.242 219.093 384.242V384.242Z" fill="black"/>
<path id="Vector_13" opacity="0.2" d="M245.992 385.621C245.612 385.621 245.236 385.547 244.885 385.403C244.535 385.259 244.216 385.048 243.947 384.781C243.679 384.515 243.466 384.199 243.321 383.851C243.176 383.504 243.101 383.131 243.101 382.754V384.249C243.101 385.01 243.405 385.739 243.948 386.276C244.49 386.814 245.225 387.116 245.992 387.116C246.758 387.116 247.494 386.814 248.036 386.276C248.578 385.739 248.882 385.01 248.882 384.249V382.754C248.882 383.131 248.808 383.504 248.662 383.851C248.517 384.199 248.304 384.515 248.036 384.781C247.767 385.048 247.449 385.259 247.098 385.403C246.747 385.547 246.371 385.621 245.992 385.621Z" fill="black"/>
<path id="Vector_14" opacity="0.2" d="M267.218 371.7C267.218 371.441 267.114 371.192 266.929 371.009C266.744 370.826 266.494 370.723 266.232 370.723C265.971 370.723 265.72 370.826 265.535 371.009C265.35 371.192 265.247 371.441 265.247 371.7V373.195C265.247 372.936 265.35 372.687 265.535 372.504C265.72 372.32 265.971 372.217 266.232 372.217C266.494 372.217 266.744 372.32 266.929 372.504C267.114 372.687 267.218 372.936 267.218 373.195V371.7Z" fill="black"/>
<path id="Vector_15" opacity="0.2" d="M243.102 377.802C243.102 378.355 242.911 378.89 242.561 379.32C242.211 379.75 241.723 380.047 241.178 380.163C240.633 380.279 240.065 380.206 239.568 379.957C239.071 379.707 238.675 379.296 238.447 378.792V380.287C238.675 380.791 239.071 381.202 239.568 381.452C240.065 381.701 240.633 381.774 241.178 381.658C241.723 381.542 242.211 381.245 242.561 380.815C242.911 380.385 243.102 379.849 243.102 379.297V377.802Z" fill="black"/>
<path id="Vector_16" opacity="0.2" d="M262.696 381.597C262.376 381.597 262.059 381.534 261.764 381.413C261.468 381.292 261.2 381.114 260.974 380.89C260.748 380.665 260.569 380.399 260.446 380.106C260.324 379.813 260.261 379.499 260.261 379.182L259.963 373.318V374.813L260.261 380.677C260.261 381.317 260.517 381.931 260.974 382.384C261.431 382.837 262.05 383.092 262.696 383.092C263.341 383.092 263.961 382.837 264.417 382.384C264.874 381.931 265.131 381.317 265.131 380.677L265.246 374.813V373.318L265.131 379.182C265.131 379.499 265.068 379.813 264.945 380.106C264.823 380.399 264.644 380.665 264.417 380.89C264.191 381.114 263.923 381.292 263.628 381.413C263.332 381.534 263.015 381.597 262.696 381.597V381.597Z" fill="black"/>
<path id="Vector_17" opacity="0.2" d="M278.927 382.747C278.599 382.747 278.274 382.681 277.973 382.553C277.671 382.425 277.399 382.238 277.172 382.003V382.755C277.172 383.515 276.867 384.244 276.325 384.782C275.783 385.319 275.048 385.621 274.282 385.621C273.515 385.621 272.78 385.319 272.238 384.782C271.696 384.244 271.391 383.515 271.391 382.755V382.128C271.042 382.44 270.608 382.645 270.144 382.717C269.679 382.79 269.204 382.727 268.774 382.537C268.345 382.347 267.98 382.038 267.724 381.646C267.469 381.255 267.333 380.798 267.334 380.332L267.218 373.318V374.813L267.334 381.827C267.333 382.293 267.469 382.75 267.724 383.141C267.98 383.533 268.345 383.842 268.774 384.032C269.204 384.222 269.679 384.285 270.144 384.212C270.608 384.139 271.042 383.935 271.391 383.623V384.25C271.391 385.01 271.696 385.739 272.238 386.277C272.78 386.814 273.515 387.116 274.282 387.116C275.048 387.116 275.783 386.814 276.325 386.277C276.867 385.739 277.172 385.01 277.172 384.25V383.497C277.508 383.845 277.941 384.086 278.416 384.187C278.891 384.289 279.386 384.247 279.836 384.067C280.287 383.888 280.673 383.578 280.945 383.179C281.217 382.779 281.362 382.309 281.362 381.827V380.332C281.362 380.649 281.299 380.963 281.177 381.256C281.054 381.549 280.875 381.815 280.649 382.039C280.423 382.264 280.154 382.442 279.859 382.563C279.563 382.684 279.247 382.747 278.927 382.747V382.747Z" fill="black"/>
<path id="Vector_18" opacity="0.2" d="M254.116 381.597C253.747 381.597 253.384 381.513 253.052 381.353C252.721 381.193 252.43 380.96 252.203 380.672C251.818 381.16 251.258 381.483 250.64 381.572C250.021 381.661 249.392 381.51 248.883 381.151V382.645C249.392 383.005 250.021 383.156 250.64 383.067C251.258 382.977 251.818 382.655 252.203 382.167C252.516 382.562 252.944 382.851 253.43 382.993C253.916 383.135 254.434 383.123 254.913 382.959C255.391 382.795 255.806 382.487 256.1 382.078C256.394 381.669 256.551 381.179 256.551 380.677L256.733 374.813V373.318L256.551 379.182C256.551 379.499 256.488 379.813 256.366 380.106C256.243 380.399 256.064 380.665 255.838 380.89C255.612 381.114 255.343 381.292 255.048 381.413C254.753 381.534 254.436 381.597 254.116 381.597V381.597Z" fill="black"/>
<path id="Vector_19" opacity="0.2" d="M259.963 370.32C259.963 369.895 259.793 369.488 259.49 369.187C259.187 368.887 258.776 368.718 258.348 368.718C257.92 368.718 257.509 368.887 257.206 369.187C256.903 369.488 256.733 369.895 256.733 370.32V371.815C256.733 371.39 256.903 370.983 257.206 370.682C257.509 370.382 257.92 370.213 258.348 370.213C258.776 370.213 259.187 370.382 259.49 370.682C259.793 370.983 259.963 371.39 259.963 371.815V370.32Z" fill="black"/>
<path id="Vector_20" d="M232.956 370.616H232.377V373.72H232.956V370.616Z" fill="#3F3D56"/>
<path id="Vector_21" d="M243.913 368.948H243.333V372.053H243.913V368.948Z" fill="#3F3D56"/>
<path id="Vector_22" d="M274.522 370.788H273.942V373.892H274.522V370.788Z" fill="#3F3D56"/>
<path id="Vector_23" d="M230 381.137H229.421V384.241H230V381.137Z" fill="#3F3D56"/>
<path id="Vector_24" d="M253.68 375.712L253.203 375.385L251.421 377.938L251.898 378.265L253.68 375.712Z" fill="#3F3D56"/>
<path id="Vector_25" d="M222.981 370.807L222.621 371.257L225.076 373.184L225.436 372.733L222.981 370.807Z" fill="#3F3D56"/>
<path id="Vector_26" d="M257.068 359.193L256.708 359.644L259.163 361.571L259.523 361.12L257.068 359.193Z" fill="#3F3D56"/>
<path id="Vector_27" d="M216.604 374.028L216.244 374.479L218.699 376.405L219.059 375.954L216.604 374.028Z" fill="#3F3D56"/>
<path id="Vector_28" d="M235.102 363.314H234.522V366.418H235.102V363.314Z" fill="white"/>
<path id="Vector_29" d="M219.217 379.297H218.638V382.402H219.217V379.297Z" fill="white"/>
<path id="Vector_30" d="M246.347 358.829H245.768V361.934H246.347V358.829Z" fill="white"/>
<path id="Vector_31" d="M274.174 378.262H273.594V381.367H274.174V378.262Z" fill="white"/>
<path id="Vector_32" d="M249.57 369.702L249.051 369.444L247.648 372.219L248.166 372.477L249.57 369.702Z" fill="white"/>
<path id="Vector_33" d="M246.903 381.201L246.385 380.943L244.981 383.718L245.499 383.976L246.903 381.201Z" fill="white"/>
<path id="Vector_34" d="M278.903 376.026L278.385 375.768L276.981 378.543L277.499 378.801L278.903 376.026Z" fill="white"/>
<path id="Vector_35" d="M238.934 374.89L238.55 375.32L240.892 377.379L241.277 376.949L238.934 374.89Z" fill="white"/>
<path id="Vector_36" d="M227.455 361.437L227.071 361.867L229.413 363.926L229.798 363.496L227.455 361.437Z" fill="white"/>
<path id="Vector_37" d="M265.601 366.611L265.216 367.041L267.558 369.1L267.943 368.67L265.601 366.611Z" fill="white"/>
<path id="Vector_38" d="M251.572 356.492L251.187 356.922L253.53 358.982L253.914 358.552L251.572 356.492Z" fill="white"/>
<path id="Vector_39" d="M239.507 368.948H238.928V372.053H239.507V368.948Z" fill="#FF6584"/>
<path id="Vector_40" d="M272.212 370.909L271.678 370.684L270.454 373.542L270.988 373.766L272.212 370.909Z" fill="#FF6584"/>
<path id="Vector_41" d="M227.903 373.957L227.401 374.244L228.966 376.933L229.468 376.646L227.903 373.957Z" fill="#FF6584"/>
<path id="Vector_42" d="M261.063 371.772L260.561 372.06L262.126 374.748L262.627 374.461L261.063 371.772Z" fill="#FF6584"/>
<path id="Vector_43" d="M240.425 360.388L239.922 360.676L241.488 363.365L241.99 363.077L240.425 360.388Z" fill="#FF6584"/>
<path id="Vector_44" d="M265.005 359.814L264.503 360.102L266.068 362.79L266.57 362.503L265.005 359.814Z" fill="#FF6584"/>
<path id="Vector_45" d="M233.121 357.283L232.619 357.571L234.184 360.259L234.686 359.972L233.121 357.283Z" fill="#FF6584"/>
<path id="Vector_46" d="M254 362.739H253.42V365.844H254V362.739Z" fill="#FF6584"/>
<path id="Vector_47" d="M220.609 367.913H220.029V371.018H220.609V367.913Z" fill="#FF6584"/>
</g>
<g id="small-donut">
<path id="Vector_48" d="M561.362 375.771C556.69 367.033 548.896 360.34 539.507 357.004C530.118 353.668 519.811 353.93 510.607 357.738C501.403 361.546 493.964 368.627 489.749 377.591C485.534 386.555 484.847 396.758 487.822 406.199H492.785C493.783 406.199 494.601 407.3 494.601 408.648H495.511C496.512 408.648 497.33 409.749 497.33 411.098C497.33 412.443 496.512 413.547 495.511 413.547H494.601C494.598 413.752 494.577 413.956 494.537 414.157H498.693C499.693 414.157 500.511 415.262 500.511 416.607C500.511 417.955 499.693 419.057 498.693 419.057H494.724C500.937 426.78 509.833 431.927 519.67 433.489C529.508 435.051 539.579 432.917 547.913 427.503C556.248 422.09 562.245 413.786 564.733 404.219C567.22 394.651 566.018 384.507 561.362 375.771ZM534.15 408.655C531.663 410.047 528.854 410.777 525.998 410.771C525.427 410.771 524.855 410.743 524.286 410.686C520.355 410.278 516.699 408.49 513.98 405.644C511.261 402.798 509.657 399.082 509.458 395.166C509.26 391.25 510.479 387.393 512.896 384.291C515.313 381.188 518.769 379.045 522.64 378.248C526.511 377.451 530.541 378.053 534.004 379.945C537.467 381.836 540.133 384.893 541.523 388.564C542.912 392.234 542.933 396.277 541.581 399.961C540.229 403.645 537.593 406.729 534.15 408.655Z" fill="#C17B27"/>
<path id="Vector_49" opacity="0.2" d="M495.511 408.647C496.296 408.647 496.967 409.328 497.22 410.272C497.292 410.003 497.329 409.726 497.329 409.448C497.329 408.101 496.511 406.999 495.511 406.999H494.602C494.602 405.652 493.784 404.55 492.784 404.55H487.822C486.69 400.954 486.082 397.216 486.015 393.449C486.008 393.742 486 394.035 486 394.33C485.996 398.355 486.611 402.357 487.822 406.198H492.784C493.784 406.198 494.602 407.3 494.602 408.647H495.511Z" fill="black"/>
<path id="Vector_50" opacity="0.2" d="M526 432.352C520.355 432.358 514.774 431.176 509.624 428.884C504.474 426.592 499.873 423.242 496.125 419.056H494.722C499.892 425.489 506.951 430.169 514.921 432.448C522.891 434.726 531.378 434.491 539.208 431.775C547.037 429.059 553.821 423.996 558.622 417.287C563.422 410.578 566 402.555 566 394.329C566 394.081 565.993 393.835 565.988 393.588C565.75 403.949 561.432 413.806 553.959 421.051C546.485 428.295 536.45 432.351 526 432.352Z" fill="black"/>
<path id="Vector_51" opacity="0.2" d="M525.998 374.591C522.062 374.592 518.215 375.75 514.942 377.919C511.67 380.089 509.119 383.172 507.613 386.778C506.107 390.385 505.714 394.354 506.482 398.183C507.25 402.011 509.146 405.528 511.93 408.288C514.713 411.048 518.26 412.928 522.12 413.689C525.981 414.451 529.982 414.059 533.619 412.565C537.255 411.071 540.364 408.541 542.55 405.295C544.737 402.05 545.904 398.233 545.904 394.33C545.898 389.096 543.799 384.079 540.067 380.378C536.335 376.678 531.276 374.596 525.998 374.591V374.591ZM534.15 408.655C531.663 410.047 528.854 410.777 525.998 410.771C525.427 410.771 524.855 410.743 524.286 410.686C520.355 410.278 516.699 408.49 513.98 405.644C511.261 402.798 509.657 399.082 509.458 395.166C509.26 391.25 510.479 387.393 512.896 384.291C515.313 381.188 518.769 379.045 522.64 378.248C526.511 377.451 530.541 378.053 534.004 379.945C537.467 381.836 540.133 384.893 541.523 388.564C542.912 392.234 542.933 396.277 541.581 399.961C540.229 403.645 537.593 406.729 534.15 408.655Z" fill="black"/>
<path id="Vector_52" d="M561.362 375.113V381.712C561.363 382.194 561.217 382.664 560.946 383.064C560.674 383.463 560.288 383.773 559.837 383.952C559.386 384.132 558.891 384.174 558.416 384.072C557.941 383.971 557.508 383.73 557.172 383.382V384.135C557.172 384.895 556.868 385.624 556.325 386.162C555.783 386.699 555.048 387.001 554.282 387.001C553.515 387.001 552.78 386.699 552.238 386.162C551.696 385.624 551.391 384.895 551.391 384.135V383.508C551.042 383.82 550.608 384.024 550.144 384.097C549.679 384.17 549.203 384.107 548.774 383.917C548.345 383.727 547.98 383.418 547.724 383.026C547.468 382.635 547.333 382.178 547.333 381.712L547.217 374.698V373.08C547.217 372.82 547.113 372.572 546.929 372.389C546.744 372.205 546.493 372.102 546.232 372.102C545.97 372.102 545.72 372.205 545.535 372.389C545.35 372.572 545.246 372.82 545.246 373.08V374.698L545.13 380.562C545.13 381.202 544.874 381.816 544.417 382.269C543.961 382.722 543.341 382.977 542.696 382.977C542.05 382.977 541.431 382.722 540.974 382.269C540.517 381.816 540.261 381.202 540.261 380.562L539.963 374.698V371.7C539.963 371.275 539.793 370.868 539.49 370.567C539.187 370.267 538.776 370.098 538.348 370.098C537.919 370.098 537.509 370.267 537.206 370.567C536.903 370.868 536.733 371.275 536.733 371.7V374.698L536.551 380.562C536.551 381.064 536.393 381.554 536.1 381.963C535.806 382.372 535.391 382.68 534.912 382.844C534.434 383.008 533.916 383.02 533.43 382.878C532.944 382.736 532.515 382.447 532.203 382.052C531.818 382.54 531.258 382.862 530.639 382.952C530.021 383.041 529.392 382.89 528.882 382.53V384.134C528.882 384.895 528.578 385.624 528.036 386.161C527.494 386.699 526.759 387.001 525.992 387.001C525.225 387.001 524.49 386.699 523.948 386.161C523.406 385.624 523.102 384.895 523.102 384.134V379.182C523.102 379.734 522.911 380.27 522.561 380.7C522.211 381.13 521.723 381.427 521.178 381.543C520.634 381.659 520.065 381.586 519.568 381.336C519.071 381.087 518.676 380.676 518.448 380.172V384.135C518.447 384.894 518.142 385.623 517.6 386.16C517.058 386.696 516.323 386.998 515.557 386.998C514.791 386.998 514.056 386.696 513.514 386.16C512.972 385.623 512.668 384.894 512.667 384.135V374.698H512.651V384.135C512.651 384.895 512.346 385.624 511.804 386.161C511.262 386.699 510.527 387.001 509.76 387.001C508.994 387.001 508.258 386.699 507.716 386.161C507.174 385.624 506.87 384.895 506.87 384.135V380.205C506.635 380.703 506.237 381.106 505.74 381.349C505.243 381.591 504.677 381.658 504.137 381.539C503.596 381.42 503.113 381.121 502.767 380.693C502.42 380.264 502.232 379.731 502.232 379.182V374.698H501.984V382.755C501.984 383.515 501.679 384.244 501.137 384.782C500.595 385.319 499.86 385.621 499.094 385.621C498.327 385.621 497.592 385.319 497.05 384.782C496.508 384.244 496.203 383.515 496.203 382.755V379.182C496.203 379.822 495.947 380.437 495.49 380.889C495.033 381.342 494.414 381.597 493.768 381.597C493.123 381.597 492.503 381.342 492.047 380.889C491.59 380.437 491.334 379.822 491.334 379.182V373.866C494.904 367.722 500.07 362.64 506.293 359.147C512.516 355.654 519.569 353.879 526.719 354.006C533.868 354.134 540.852 356.159 546.945 359.87C553.037 363.582 558.016 368.846 561.362 375.113V375.113Z" fill="#00C7F9"/>
<path id="Vector_53" opacity="0.2" d="M509.76 385.622C509.381 385.622 509.005 385.548 508.654 385.404C508.303 385.259 507.985 385.048 507.716 384.782C507.448 384.516 507.235 384.2 507.09 383.852C506.944 383.504 506.87 383.132 506.87 382.755V384.25C506.87 385.01 507.174 385.739 507.716 386.277C508.258 386.814 508.993 387.116 509.76 387.116C510.527 387.116 511.262 386.814 511.804 386.277C512.346 385.739 512.651 385.01 512.651 384.25V382.755C512.651 383.132 512.576 383.504 512.431 383.852C512.285 384.2 512.072 384.516 511.804 384.782C511.536 385.048 511.217 385.259 510.866 385.404C510.516 385.548 510.14 385.622 509.76 385.622V385.622Z" fill="black"/>
<path id="Vector_54" opacity="0.2" d="M515.557 385.622C515.177 385.622 514.801 385.548 514.451 385.404C514.1 385.259 513.781 385.048 513.513 384.782C513.245 384.516 513.032 384.2 512.886 383.852C512.741 383.504 512.666 383.132 512.667 382.755V384.25C512.667 385.01 512.971 385.739 513.513 386.277C514.055 386.814 514.79 387.116 515.557 387.116C516.323 387.116 517.059 386.814 517.601 386.277C518.143 385.739 518.447 385.01 518.447 384.25V382.755C518.447 383.132 518.373 383.504 518.227 383.852C518.082 384.2 517.869 384.516 517.601 384.782C517.332 385.048 517.014 385.259 516.663 385.404C516.312 385.548 515.936 385.622 515.557 385.622Z" fill="black"/>
<path id="Vector_55" opacity="0.2" d="M506.87 378.826C506.635 379.323 506.236 379.727 505.74 379.969C505.243 380.212 504.677 380.279 504.137 380.16C503.596 380.04 503.113 379.742 502.767 379.313C502.42 378.885 502.232 378.352 502.232 377.802V379.297C502.232 379.846 502.42 380.379 502.767 380.808C503.113 381.236 503.596 381.535 504.137 381.654C504.677 381.774 505.243 381.706 505.74 381.464C506.236 381.221 506.635 380.818 506.87 380.321V378.826Z" fill="black"/>
<path id="Vector_56" opacity="0.2" d="M512.666 373.318H512.65V374.813H512.666V373.318Z" fill="black"/>
<path id="Vector_57" opacity="0.2" d="M496.203 377.802C496.203 378.443 495.946 379.057 495.49 379.51C495.033 379.963 494.414 380.217 493.768 380.217C493.123 380.217 492.503 379.963 492.047 379.51C491.59 379.057 491.334 378.443 491.334 377.802V379.297C491.334 379.938 491.59 380.552 492.047 381.005C492.503 381.458 493.123 381.712 493.768 381.712C494.414 381.712 495.033 381.458 495.49 381.005C495.946 380.552 496.203 379.938 496.203 379.297V377.802Z" fill="black"/>
<path id="Vector_58" opacity="0.2" d="M502.232 373.318H501.983V374.813H502.232V373.318Z" fill="black"/>
<path id="Vector_59" opacity="0.2" d="M499.093 384.242C498.714 384.242 498.338 384.168 497.987 384.024C497.637 383.88 497.318 383.669 497.05 383.402C496.781 383.136 496.568 382.82 496.423 382.472C496.278 382.125 496.203 381.752 496.203 381.375V382.87C496.203 383.63 496.508 384.36 497.05 384.897C497.592 385.435 498.327 385.737 499.093 385.737C499.86 385.737 500.595 385.435 501.137 384.897C501.679 384.36 501.984 383.63 501.984 382.87V381.375C501.984 381.752 501.909 382.125 501.764 382.472C501.619 382.82 501.406 383.136 501.137 383.402C500.869 383.669 500.55 383.88 500.2 384.024C499.849 384.168 499.473 384.242 499.093 384.242V384.242Z" fill="black"/>
<path id="Vector_60" opacity="0.2" d="M525.992 385.622C525.612 385.622 525.236 385.548 524.885 385.404C524.535 385.259 524.216 385.048 523.948 384.782C523.679 384.516 523.466 384.2 523.321 383.852C523.176 383.504 523.101 383.132 523.101 382.755V384.25C523.101 385.01 523.406 385.739 523.948 386.277C524.49 386.814 525.225 387.116 525.992 387.116C526.758 387.116 527.493 386.814 528.035 386.277C528.578 385.739 528.882 385.01 528.882 384.25V382.755C528.882 383.132 528.807 383.504 528.662 383.852C528.517 384.2 528.304 384.516 528.035 384.782C527.767 385.048 527.448 385.259 527.098 385.404C526.747 385.548 526.371 385.622 525.992 385.622Z" fill="black"/>
<path id="Vector_61" opacity="0.2" d="M547.217 371.7C547.217 371.441 547.113 371.192 546.928 371.009C546.744 370.826 546.493 370.723 546.232 370.723C545.97 370.723 545.72 370.826 545.535 371.009C545.35 371.192 545.246 371.441 545.246 371.7V373.195C545.246 372.936 545.35 372.687 545.535 372.504C545.72 372.32 545.97 372.217 546.232 372.217C546.493 372.217 546.744 372.32 546.928 372.504C547.113 372.687 547.217 372.936 547.217 373.195V371.7Z" fill="black"/>
<path id="Vector_62" opacity="0.2" d="M523.101 377.802C523.102 378.355 522.911 378.891 522.561 379.32C522.211 379.75 521.723 380.048 521.178 380.164C520.633 380.279 520.065 380.206 519.568 379.957C519.071 379.707 518.676 379.296 518.447 378.793V380.287C518.676 380.791 519.071 381.202 519.568 381.452C520.065 381.701 520.633 381.774 521.178 381.658C521.723 381.543 522.211 381.245 522.561 380.815C522.911 380.386 523.102 379.85 523.101 379.297V377.802Z" fill="black"/>
<path id="Vector_63" opacity="0.2" d="M542.695 381.597C542.376 381.597 542.059 381.534 541.764 381.413C541.468 381.292 541.2 381.114 540.974 380.89C540.748 380.665 540.568 380.399 540.446 380.106C540.324 379.813 540.261 379.499 540.261 379.182L539.963 373.318V374.812L540.261 380.677C540.261 381.317 540.517 381.931 540.974 382.384C541.43 382.837 542.05 383.092 542.695 383.092C543.341 383.092 543.96 382.837 544.417 382.384C544.874 381.931 545.13 381.317 545.13 380.677L545.246 374.812V373.318L545.13 379.182C545.13 379.499 545.067 379.813 544.945 380.106C544.823 380.399 544.643 380.665 544.417 380.89C544.191 381.114 543.923 381.292 543.627 381.413C543.332 381.534 543.015 381.597 542.695 381.597V381.597Z" fill="black"/>
<path id="Vector_64" opacity="0.2" d="M558.927 382.747C558.599 382.747 558.275 382.681 557.973 382.553C557.671 382.425 557.399 382.238 557.172 382.003V382.755C557.172 383.515 556.867 384.244 556.325 384.782C555.783 385.319 555.048 385.621 554.282 385.621C553.515 385.621 552.78 385.319 552.238 384.782C551.696 384.244 551.391 383.515 551.391 382.755V382.128C551.042 382.44 550.608 382.645 550.144 382.717C549.679 382.79 549.203 382.727 548.774 382.537C548.345 382.347 547.98 382.038 547.724 381.646C547.469 381.255 547.333 380.798 547.333 380.332L547.217 373.318V374.812L547.333 381.827C547.333 382.293 547.469 382.75 547.724 383.141C547.98 383.532 548.345 383.842 548.774 384.032C549.203 384.222 549.679 384.285 550.144 384.212C550.608 384.139 551.042 383.935 551.391 383.623V384.249C551.391 385.01 551.696 385.739 552.238 386.276C552.78 386.814 553.515 387.116 554.282 387.116C555.048 387.116 555.783 386.814 556.325 386.276C556.867 385.739 557.172 385.01 557.172 384.249V383.497C557.508 383.845 557.941 384.086 558.416 384.187C558.891 384.289 559.386 384.247 559.837 384.067C560.287 383.887 560.674 383.578 560.945 383.179C561.217 382.779 561.362 382.308 561.362 381.827V380.332C561.362 380.649 561.299 380.963 561.177 381.256C561.054 381.549 560.875 381.815 560.649 382.039C560.423 382.264 560.155 382.441 559.859 382.563C559.564 382.684 559.247 382.747 558.927 382.747V382.747Z" fill="black"/>
<path id="Vector_65" opacity="0.2" d="M534.116 381.597C533.747 381.597 533.383 381.513 533.052 381.353C532.72 381.193 532.43 380.96 532.203 380.672C531.817 381.16 531.257 381.483 530.639 381.572C530.02 381.661 529.391 381.51 528.882 381.151V382.645C529.391 383.005 530.02 383.156 530.639 383.067C531.257 382.977 531.817 382.655 532.203 382.167C532.515 382.562 532.944 382.851 533.43 382.993C533.915 383.135 534.434 383.123 534.912 382.959C535.391 382.795 535.806 382.487 536.1 382.078C536.393 381.669 536.551 381.179 536.55 380.677L536.732 374.812V373.318L536.55 379.182C536.55 379.499 536.488 379.813 536.365 380.106C536.243 380.399 536.063 380.665 535.837 380.89C535.611 381.114 535.343 381.292 535.047 381.413C534.752 381.534 534.435 381.597 534.116 381.597V381.597Z" fill="black"/>
<path id="Vector_66" opacity="0.2" d="M539.963 370.32C539.963 369.895 539.793 369.488 539.49 369.187C539.187 368.887 538.776 368.718 538.348 368.718C537.919 368.718 537.509 368.887 537.206 369.187C536.903 369.488 536.733 369.895 536.733 370.32V371.815C536.733 371.39 536.903 370.983 537.206 370.682C537.509 370.382 537.919 370.213 538.348 370.213C538.776 370.213 539.187 370.382 539.49 370.682C539.793 370.983 539.963 371.39 539.963 371.815V370.32Z" fill="black"/>
<path id="Vector_67" d="M512.957 370.615H512.377V373.72H512.957V370.615Z" fill="#3F3D56"/>
<path id="Vector_68" d="M523.913 368.948H523.334V372.053H523.913V368.948Z" fill="#3F3D56"/>
<path id="Vector_69" d="M554.522 370.788H553.942V373.892H554.522V370.788Z" fill="#3F3D56"/>
<path id="Vector_70" d="M510 381.138H509.42V384.241H510V381.138Z" fill="#3F3D56"/>
<path id="Vector_71" d="M533.681 375.712L533.204 375.384L531.422 377.938L531.899 378.265L533.681 375.712Z" fill="#3F3D56"/>
<path id="Vector_72" d="M502.981 370.806L502.622 371.257L505.077 373.184L505.436 372.733L502.981 370.806Z" fill="#3F3D56"/>
<path id="Vector_73" d="M537.068 359.193L536.708 359.644L539.163 361.57L539.523 361.12L537.068 359.193Z" fill="#3F3D56"/>
<path id="Vector_74" d="M496.604 374.027L496.244 374.478L498.699 376.404L499.059 375.953L496.604 374.027Z" fill="#3F3D56"/>
<path id="Vector_75" d="M515.102 363.314H514.522V366.418H515.102V363.314Z" fill="white"/>
<path id="Vector_76" d="M499.218 379.298H498.638V382.402H499.218V379.298Z" fill="white"/>
<path id="Vector_77" d="M526.348 358.829H525.768V361.934H526.348V358.829Z" fill="white"/>
<path id="Vector_78" d="M554.174 378.263H553.594V381.366H554.174V378.263Z" fill="white"/>
<path id="Vector_79" d="M529.57 369.702L529.052 369.444L527.647 372.219L528.166 372.477L529.57 369.702Z" fill="white"/>
<path id="Vector_80" d="M526.902 381.201L526.384 380.943L524.982 383.718L525.499 383.976L526.902 381.201Z" fill="white"/>
<path id="Vector_81" d="M558.902 376.026L558.384 375.769L556.98 378.544L557.498 378.801L558.902 376.026Z" fill="white"/>
<path id="Vector_82" d="M518.934 374.89L518.549 375.32L520.892 377.38L521.276 376.95L518.934 374.89Z" fill="white"/>
<path id="Vector_83" d="M507.456 361.437L507.071 361.867L509.414 363.927L509.798 363.497L507.456 361.437Z" fill="white"/>
<path id="Vector_84" d="M545.601 366.611L545.216 367.041L547.558 369.101L547.943 368.671L545.601 366.611Z" fill="white"/>
<path id="Vector_85" d="M531.572 356.493L531.187 356.923L533.53 358.982L533.914 358.552L531.572 356.493Z" fill="white"/>
<path id="Vector_86" d="M519.507 368.948H518.927V372.053H519.507V368.948Z" fill="#FF6584"/>
<path id="Vector_87" d="M552.211 370.909L551.678 370.684L550.454 373.542L550.988 373.766L552.211 370.909Z" fill="#FF6584"/>
<path id="Vector_88" d="M507.903 373.957L507.401 374.244L508.966 376.933L509.468 376.646L507.903 373.957Z" fill="#FF6584"/>
<path id="Vector_89" d="M541.062 371.772L540.56 372.06L542.125 374.749L542.628 374.461L541.062 371.772Z" fill="#FF6584"/>
<path id="Vector_90" d="M520.424 360.389L519.922 360.676L521.488 363.365L521.99 363.077L520.424 360.389Z" fill="#FF6584"/>
<path id="Vector_91" d="M545.005 359.814L544.503 360.102L546.068 362.79L546.57 362.503L545.005 359.814Z" fill="#FF6584"/>
<path id="Vector_92" d="M513.121 357.284L512.619 357.571L514.184 360.26L514.686 359.972L513.121 357.284Z" fill="#FF6584"/>
<path id="Vector_93" d="M534 362.739H533.42V365.844H534V362.739Z" fill="#FF6584"/>
<path id="Vector_94" d="M500.608 367.913H500.029V371.018H500.608V367.913Z" fill="#FF6584"/>
</g>
<g id="medium1-donut">
<path id="Vector_95" d="M414.522 390.328C411.018 383.774 405.172 378.754 398.13 376.252C391.089 373.751 383.359 373.947 376.455 376.803C369.552 379.659 363.973 384.97 360.812 391.693C357.651 398.416 357.136 406.068 359.367 413.148H363.089C363.837 413.148 364.451 413.974 364.451 414.986H365.134C365.884 414.986 366.498 415.812 366.498 416.823C366.498 417.832 365.884 418.66 365.134 418.66H364.451C364.449 418.814 364.433 418.967 364.403 419.118H367.52C368.27 419.118 368.884 419.946 368.884 420.955C368.884 421.966 368.27 422.792 367.52 422.792H364.543C369.203 428.585 375.875 432.445 383.253 433.616C390.631 434.788 398.184 433.187 404.435 429.127C410.686 425.067 415.184 418.839 417.05 411.664C418.915 404.488 418.014 396.88 414.522 390.328ZM394.112 414.991C392.247 416.035 390.141 416.582 387.999 416.578C387.57 416.578 387.142 416.556 386.715 416.514C383.766 416.208 381.025 414.867 378.985 412.733C376.946 410.598 375.743 407.811 375.594 404.874C375.445 401.937 376.36 399.044 378.172 396.718C379.985 394.391 382.577 392.784 385.48 392.186C388.383 391.588 391.406 392.039 394.003 393.458C396.6 394.877 398.6 397.17 399.642 399.922C400.684 402.675 400.7 405.707 399.686 408.47C398.672 411.233 396.695 413.546 394.112 414.991Z" fill="#C17B27"/>
<path id="Vector_96" opacity="0.2" d="M365.133 414.986C365.722 414.986 366.226 415.497 366.415 416.205C366.469 416.003 366.497 415.795 366.497 415.586C366.497 414.576 365.883 413.75 365.133 413.75H364.451C364.451 412.739 363.838 411.913 363.088 411.913H359.366C358.518 409.215 358.061 406.412 358.011 403.587C358.006 403.807 358 404.026 358 404.247C357.997 407.266 358.458 410.268 359.366 413.149H363.088C363.838 413.149 364.451 413.976 364.451 414.986H365.133Z" fill="black"/>
<path id="Vector_97" opacity="0.2" d="M388 432.764C383.766 432.768 379.58 431.882 375.718 430.163C371.855 428.444 368.404 425.932 365.593 422.792H364.542C368.419 427.617 373.713 431.127 379.691 432.836C385.668 434.545 392.033 434.369 397.906 432.332C403.778 430.294 408.866 426.497 412.466 421.466C416.066 416.434 418 410.417 418 404.247C418 404.061 417.995 403.877 417.991 403.691C417.812 411.462 414.574 418.855 408.969 424.288C403.364 429.722 395.838 432.764 388 432.764Z" fill="black"/>
<path id="Vector_98" opacity="0.2" d="M387.999 389.443C385.047 389.444 382.161 390.312 379.707 391.939C377.252 393.566 375.339 395.879 374.21 398.584C373.081 401.289 372.785 404.265 373.362 407.137C373.938 410.008 375.36 412.646 377.447 414.716C379.535 416.786 382.195 418.196 385.09 418.767C387.986 419.338 390.987 419.045 393.714 417.924C396.442 416.803 398.773 414.906 400.413 412.472C402.053 410.037 402.928 407.175 402.928 404.247C402.924 400.322 401.349 396.559 398.55 393.784C395.751 391.008 391.957 389.447 387.999 389.443V389.443ZM394.112 414.991C392.247 416.036 390.141 416.582 387.999 416.578C387.57 416.578 387.142 416.557 386.715 416.514C383.766 416.209 381.024 414.867 378.985 412.733C376.946 410.599 375.743 407.811 375.594 404.875C375.445 401.938 376.359 399.045 378.172 396.718C379.985 394.391 382.577 392.784 385.48 392.186C388.383 391.588 391.406 392.04 394.003 393.458C396.6 394.877 398.6 397.17 399.642 399.923C400.684 402.676 400.7 405.707 399.686 408.471C398.671 411.234 396.695 413.546 394.112 414.991Z" fill="black"/>
<path id="Vector_99" d="M414.521 389.834V394.784C414.521 395.145 414.412 395.498 414.208 395.798C414.004 396.097 413.715 396.329 413.377 396.464C413.039 396.599 412.668 396.63 412.311 396.554C411.955 396.478 411.63 396.298 411.378 396.037V396.601C411.378 397.171 411.15 397.718 410.743 398.121C410.337 398.524 409.785 398.751 409.21 398.751C408.635 398.751 408.084 398.524 407.677 398.121C407.271 397.718 407.043 397.171 407.043 396.601V396.131C406.78 396.365 406.455 396.518 406.107 396.573C405.759 396.627 405.402 396.58 405.08 396.438C404.758 396.295 404.484 396.063 404.292 395.77C404.101 395.476 403.999 395.134 403.999 394.784L403.912 389.523V388.31C403.912 388.115 403.834 387.929 403.696 387.791C403.557 387.654 403.369 387.577 403.173 387.577C402.977 387.577 402.789 387.654 402.65 387.791C402.512 387.929 402.434 388.115 402.434 388.31V389.523L402.347 393.921C402.347 394.402 402.155 394.862 401.812 395.202C401.47 395.542 401.005 395.732 400.521 395.732C400.037 395.732 399.572 395.542 399.23 395.202C398.887 394.862 398.695 394.402 398.695 393.921L398.471 389.523V387.275C398.471 386.956 398.344 386.651 398.117 386.425C397.889 386.2 397.581 386.074 397.26 386.074C396.939 386.074 396.631 386.2 396.404 386.425C396.176 386.651 396.049 386.956 396.049 387.275V389.523L395.912 393.921C395.913 394.298 395.794 394.665 395.574 394.972C395.354 395.279 395.043 395.51 394.684 395.633C394.325 395.756 393.936 395.765 393.572 395.658C393.207 395.552 392.886 395.335 392.652 395.039C392.363 395.405 391.943 395.647 391.479 395.714C391.015 395.78 390.543 395.667 390.161 395.398V396.601C390.161 397.171 389.933 397.718 389.526 398.121C389.12 398.524 388.568 398.751 387.993 398.751C387.418 398.751 386.867 398.524 386.46 398.121C386.054 397.718 385.826 397.171 385.826 396.601V392.886C385.826 393.301 385.683 393.703 385.42 394.025C385.158 394.347 384.792 394.57 384.383 394.657C383.975 394.744 383.548 394.689 383.176 394.502C382.803 394.315 382.506 394.007 382.335 393.629V396.601C382.335 397.171 382.106 397.717 381.699 398.12C381.293 398.522 380.742 398.748 380.167 398.748C379.593 398.748 379.042 398.522 378.635 398.12C378.229 397.717 378 397.171 378 396.601V389.523H377.987V396.601C377.987 397.171 377.759 397.718 377.353 398.121C376.946 398.524 376.395 398.751 375.82 398.751C375.245 398.751 374.693 398.524 374.287 398.121C373.88 397.718 373.652 397.171 373.652 396.601V393.654C373.476 394.027 373.177 394.33 372.804 394.511C372.432 394.693 372.008 394.744 371.602 394.654C371.197 394.565 370.834 394.341 370.575 394.019C370.315 393.698 370.173 393.298 370.174 392.886V389.523H369.988V395.566C369.988 396.136 369.759 396.683 369.353 397.086C368.946 397.489 368.395 397.716 367.82 397.716C367.245 397.716 366.694 397.489 366.287 397.086C365.88 396.683 365.652 396.136 365.652 395.566V392.886C365.652 393.367 365.46 393.827 365.117 394.167C364.775 394.507 364.31 394.697 363.826 394.697C363.342 394.697 362.877 394.507 362.535 394.167C362.192 393.827 362 393.367 362 392.886V388.9C364.678 384.292 368.552 380.48 373.219 377.86C377.887 375.241 383.176 373.909 388.538 374.005C393.9 374.1 399.138 375.619 403.708 378.403C408.277 381.187 412.011 385.134 414.521 389.834V389.834Z" fill="#783F00"/>
<path id="Vector_100" opacity="0.2" d="M375.82 397.716C375.536 397.716 375.254 397.661 374.991 397.553C374.728 397.445 374.489 397.286 374.287 397.087C374.086 396.887 373.926 396.65 373.817 396.389C373.708 396.128 373.652 395.849 373.652 395.566V396.687C373.652 397.258 373.881 397.804 374.287 398.208C374.694 398.611 375.245 398.837 375.82 398.837C376.395 398.837 376.947 398.611 377.353 398.208C377.76 397.804 377.988 397.258 377.988 396.687V395.566C377.988 395.849 377.932 396.128 377.823 396.389C377.714 396.65 377.554 396.887 377.353 397.087C377.152 397.286 376.913 397.445 376.65 397.553C376.387 397.661 376.105 397.716 375.82 397.716V397.716Z" fill="black"/>
<path id="Vector_101" opacity="0.2" d="M380.168 397.716C379.883 397.716 379.602 397.661 379.339 397.553C379.075 397.445 378.836 397.286 378.635 397.087C378.434 396.887 378.274 396.65 378.165 396.389C378.056 396.128 378 395.849 378 395.566V396.687C378 397.258 378.229 397.804 378.635 398.208C379.042 398.611 379.593 398.837 380.168 398.837C380.743 398.837 381.294 398.611 381.701 398.208C382.108 397.804 382.336 397.258 382.336 396.687V395.566C382.336 395.849 382.28 396.128 382.171 396.389C382.062 396.65 381.902 396.887 381.701 397.087C381.5 397.286 381.261 397.445 380.998 397.553C380.735 397.661 380.453 397.716 380.168 397.716Z" fill="black"/>
<path id="Vector_102" opacity="0.2" d="M373.652 392.619C373.476 392.992 373.177 393.295 372.804 393.477C372.432 393.658 372.008 393.709 371.602 393.619C371.197 393.53 370.834 393.306 370.575 392.985C370.315 392.663 370.174 392.263 370.174 391.852V392.973C370.174 393.385 370.315 393.784 370.575 394.106C370.834 394.427 371.197 394.651 371.602 394.74C372.008 394.83 372.432 394.78 372.804 394.598C373.177 394.416 373.476 394.113 373.652 393.74V392.619Z" fill="black"/>
<path id="Vector_103" opacity="0.2" d="M378 388.488H377.988V389.609H378V388.488Z" fill="black"/>
<path id="Vector_104" opacity="0.2" d="M365.652 391.852C365.652 392.332 365.46 392.792 365.117 393.132C364.775 393.472 364.31 393.663 363.826 393.663C363.342 393.663 362.877 393.472 362.535 393.132C362.192 392.792 362 392.332 362 391.852V392.973C362 393.453 362.192 393.914 362.535 394.253C362.877 394.593 363.342 394.784 363.826 394.784C364.31 394.784 364.775 394.593 365.117 394.253C365.46 393.914 365.652 393.453 365.652 392.973V391.852Z" fill="black"/>
<path id="Vector_105" opacity="0.2" d="M370.174 388.488H369.988V389.609H370.174V388.488Z" fill="black"/>
<path id="Vector_106" opacity="0.2" d="M367.82 396.681C367.536 396.681 367.254 396.625 366.991 396.517C366.728 396.409 366.489 396.251 366.287 396.051C366.086 395.852 365.926 395.615 365.817 395.354C365.709 395.093 365.653 394.814 365.653 394.531V395.652C365.653 396.222 365.881 396.769 366.287 397.172C366.694 397.576 367.245 397.802 367.82 397.802C368.395 397.802 368.947 397.576 369.353 397.172C369.76 396.769 369.988 396.222 369.988 395.652V394.531C369.988 394.814 369.932 395.093 369.823 395.354C369.714 395.615 369.555 395.852 369.353 396.051C369.152 396.251 368.913 396.409 368.65 396.517C368.387 396.625 368.105 396.681 367.82 396.681V396.681Z" fill="black"/>
<path id="Vector_107" opacity="0.2" d="M387.994 397.716C387.709 397.716 387.427 397.661 387.164 397.553C386.901 397.445 386.662 397.286 386.461 397.087C386.26 396.887 386.1 396.65 385.991 396.389C385.882 396.128 385.826 395.849 385.826 395.566V396.687C385.826 397.258 386.055 397.804 386.461 398.208C386.868 398.611 387.419 398.837 387.994 398.837C388.569 398.837 389.12 398.611 389.527 398.208C389.933 397.804 390.162 397.258 390.162 396.687V395.566C390.162 395.849 390.106 396.128 389.997 396.389C389.888 396.65 389.728 396.887 389.527 397.087C389.326 397.286 389.087 397.445 388.824 397.553C388.561 397.661 388.279 397.716 387.994 397.716Z" fill="black"/>
<path id="Vector_108" opacity="0.2" d="M403.913 387.275C403.913 387.081 403.835 386.894 403.696 386.757C403.557 386.619 403.369 386.542 403.173 386.542C402.977 386.542 402.789 386.619 402.651 386.757C402.512 386.894 402.434 387.081 402.434 387.275V388.396C402.434 388.202 402.512 388.015 402.651 387.878C402.789 387.74 402.977 387.663 403.173 387.663C403.369 387.663 403.557 387.74 403.696 387.878C403.835 388.015 403.913 388.202 403.913 388.396V387.275Z" fill="black"/>
<path id="Vector_109" opacity="0.2" d="M385.826 391.852C385.827 392.266 385.683 392.668 385.421 392.99C385.158 393.312 384.792 393.535 384.384 393.622C383.975 393.709 383.549 393.654 383.177 393.467C382.804 393.28 382.507 392.972 382.336 392.594V393.715C382.507 394.093 382.804 394.401 383.177 394.588C383.549 394.776 383.975 394.83 384.384 394.743C384.792 394.657 385.158 394.433 385.421 394.111C385.683 393.789 385.827 393.387 385.826 392.973V391.852Z" fill="black"/>
<path id="Vector_110" opacity="0.2" d="M400.522 394.698C400.282 394.698 400.044 394.651 399.823 394.56C399.601 394.469 399.4 394.335 399.23 394.167C399.061 393.999 398.926 393.799 398.834 393.58C398.743 393.36 398.695 393.124 398.695 392.887L398.472 388.488V389.609L398.695 394.008C398.695 394.488 398.888 394.949 399.23 395.288C399.573 395.628 400.037 395.819 400.522 395.819C401.006 395.819 401.47 395.628 401.813 395.288C402.155 394.949 402.348 394.488 402.348 394.008L402.435 389.609V388.488L402.348 392.887C402.348 393.124 402.3 393.36 402.209 393.58C402.117 393.799 401.982 393.999 401.813 394.167C401.643 394.335 401.442 394.469 401.22 394.56C400.999 394.651 400.761 394.698 400.522 394.698V394.698Z" fill="black"/>
<path id="Vector_111" opacity="0.2" d="M412.696 395.56C412.45 395.56 412.206 395.511 411.98 395.415C411.754 395.319 411.549 395.178 411.379 395.002V395.566C411.379 396.136 411.151 396.683 410.744 397.086C410.338 397.489 409.786 397.716 409.211 397.716C408.636 397.716 408.085 397.489 407.678 397.086C407.272 396.683 407.043 396.136 407.043 395.566V395.096C406.781 395.33 406.456 395.483 406.108 395.538C405.759 395.592 405.402 395.545 405.08 395.403C404.758 395.26 404.485 395.028 404.293 394.735C404.101 394.441 403.999 394.099 404 393.749L403.913 388.488V389.609L404 394.87C403.999 395.22 404.101 395.562 404.293 395.856C404.485 396.149 404.758 396.381 405.08 396.524C405.402 396.667 405.759 396.713 406.108 396.659C406.456 396.604 406.781 396.451 407.043 396.217V396.687C407.043 397.257 407.272 397.804 407.678 398.207C408.085 398.611 408.636 398.837 409.211 398.837C409.786 398.837 410.338 398.611 410.744 398.207C411.151 397.804 411.379 397.257 411.379 396.687V396.123C411.631 396.384 411.957 396.564 412.313 396.64C412.669 396.717 413.04 396.685 413.378 396.55C413.716 396.416 414.006 396.183 414.21 395.884C414.414 395.585 414.523 395.231 414.522 394.87V393.749C414.522 393.987 414.475 394.222 414.383 394.442C414.292 394.662 414.157 394.861 413.988 395.03C413.818 395.198 413.617 395.331 413.395 395.422C413.173 395.513 412.936 395.56 412.696 395.56V395.56Z" fill="black"/>
<path id="Vector_112" opacity="0.2" d="M394.087 394.697C393.81 394.698 393.537 394.635 393.289 394.515C393.04 394.395 392.822 394.22 392.652 394.004C392.363 394.37 391.943 394.612 391.479 394.679C391.016 394.746 390.544 394.632 390.162 394.363V395.484C390.544 395.754 391.016 395.867 391.479 395.8C391.943 395.733 392.363 395.491 392.652 395.125C392.886 395.422 393.208 395.638 393.572 395.745C393.937 395.851 394.325 395.842 394.684 395.719C395.043 395.596 395.354 395.365 395.575 395.058C395.795 394.752 395.913 394.384 395.913 394.008L396.049 389.609V388.488L395.913 392.886C395.913 393.124 395.866 393.36 395.774 393.58C395.682 393.799 395.548 393.999 395.378 394.167C395.208 394.335 395.007 394.469 394.786 394.56C394.564 394.651 394.327 394.698 394.087 394.697V394.697Z" fill="black"/>
<path id="Vector_113" opacity="0.2" d="M398.472 386.24C398.472 385.922 398.344 385.616 398.117 385.391C397.89 385.166 397.582 385.039 397.26 385.039C396.939 385.039 396.631 385.166 396.404 385.391C396.177 385.616 396.049 385.922 396.049 386.24V387.361C396.049 387.043 396.177 386.737 396.404 386.512C396.631 386.287 396.939 386.16 397.26 386.16C397.582 386.16 397.89 386.287 398.117 386.512C398.344 386.737 398.472 387.043 398.472 387.361V386.24Z" fill="black"/>
<path id="Vector_114" d="M378.218 386.462H377.783V388.79H378.218V386.462Z" fill="#3F3D56"/>
<path id="Vector_115" d="M386.435 385.211H386V387.54H386.435V385.211Z" fill="#3F3D56"/>
<path id="Vector_116" d="M409.391 386.591H408.956V388.919H409.391V386.591Z" fill="#3F3D56"/>
<path id="Vector_117" d="M376 394.352H375.566V396.681H376V394.352Z" fill="#3F3D56"/>
<path id="Vector_118" d="M393.76 390.283L393.403 390.038L392.067 391.953L392.424 392.198L393.76 390.283Z" fill="#3F3D56"/>
<path id="Vector_119" d="M370.736 386.605L370.466 386.943L372.307 388.389L372.577 388.051L370.736 386.605Z" fill="#3F3D56"/>
<path id="Vector_120" d="M396.301 377.894L396.031 378.232L397.873 379.678L398.142 379.34L396.301 377.894Z" fill="#3F3D56"/>
<path id="Vector_121" d="M365.953 389.021L365.684 389.359L367.525 390.804L367.794 390.466L365.953 389.021Z" fill="#3F3D56"/>
<path id="Vector_122" d="M379.826 380.985H379.392V383.314H379.826V380.985Z" fill="white"/>
<path id="Vector_123" d="M367.913 392.973H367.478V395.301H367.913V392.973Z" fill="white"/>
<path id="Vector_124" d="M388.261 377.622H387.826V379.95H388.261V377.622Z" fill="white"/>
<path id="Vector_125" d="M409.131 392.196H408.695V394.524H409.131V392.196Z" fill="white"/>
<path id="Vector_126" d="M390.678 385.776L390.289 385.583L389.236 387.664L389.625 387.858L390.678 385.776Z" fill="white"/>
<path id="Vector_127" d="M388.677 394.4L388.289 394.207L387.236 396.288L387.624 396.481L388.677 394.4Z" fill="white"/>
<path id="Vector_128" d="M412.677 390.519L412.288 390.326L411.236 392.407L411.624 392.601L412.677 390.519Z" fill="white"/>
<path id="Vector_129" d="M382.701 389.667L382.412 389.989L384.169 391.534L384.458 391.211L382.701 389.667Z" fill="white"/>
<path id="Vector_130" d="M374.092 379.578L373.804 379.9L375.56 381.445L375.849 381.122L374.092 379.578Z" fill="white"/>
<path id="Vector_131" d="M402.701 383.458L402.412 383.78L404.17 385.325L404.458 385.002L402.701 383.458Z" fill="white"/>
<path id="Vector_132" d="M392.179 375.869L391.891 376.191L393.648 377.736L393.936 377.413L392.179 375.869Z" fill="white"/>
<path id="Vector_133" d="M383.13 385.211H382.696V387.54H383.13V385.211Z" fill="#FF6584"/>
<path id="Vector_134" d="M407.659 386.681L407.259 386.513L406.342 388.656L406.742 388.824L407.659 386.681Z" fill="#FF6584"/>
<path id="Vector_135" d="M374.428 388.967L374.051 389.183L375.225 391.199L375.602 390.984L374.428 388.967Z" fill="#FF6584"/>
<path id="Vector_136" d="M399.297 387.329L398.921 387.545L400.094 389.561L400.471 389.346L399.297 387.329Z" fill="#FF6584"/>
<path id="Vector_137" d="M383.819 378.791L383.442 379.007L384.616 381.023L384.993 380.808L383.819 378.791Z" fill="#FF6584"/>
<path id="Vector_138" d="M402.254 378.361L401.877 378.576L403.051 380.593L403.428 380.377L402.254 378.361Z" fill="#FF6584"/>
<path id="Vector_139" d="M378.341 376.463L377.964 376.679L379.138 378.695L379.515 378.48L378.341 376.463Z" fill="#FF6584"/>
<path id="Vector_140" d="M394 380.555H393.565V382.883H394V380.555Z" fill="#FF6584"/>
<path id="Vector_141" d="M368.957 384.435H368.522V386.763H368.957V384.435Z" fill="#FF6584"/>
</g>
<g id="big-donut">
<path id="Vector_142" d="M436.535 103.831L435.159 103.143L431.43 110.541L432.806 111.229L436.535 103.831Z" fill="white"/>
<path id="Vector_143" d="M457.344 109.062H455.897V116.84H457.344V109.062Z" fill="#3F3D56"/>
<path id="Vector_144" d="M456.476 127.788H455.029V135.566H456.476V127.788Z" fill="white"/>
<path id="Vector_145" d="M474.419 121.091C463.019 99.6279 444.123 83.059 421.295 74.509C398.467 65.9591 373.285 66.019 350.498 74.6777C327.712 83.3363 308.896 99.995 297.599 121.512C286.302 143.029 283.306 167.916 289.176 191.481C295.045 215.045 309.374 235.657 329.46 249.43C349.547 263.202 374.002 269.182 398.213 266.243C422.424 263.304 444.718 251.648 460.89 233.474C477.061 215.299 485.993 191.863 486 167.586C486.007 151.379 482.031 135.417 474.419 121.091ZM406.487 203.472C398.567 207.922 389.394 209.651 380.388 208.394C371.381 207.136 363.041 202.96 356.657 196.513C350.272 190.065 346.199 181.704 345.066 172.722C343.934 163.739 345.805 154.635 350.39 146.817C354.975 138.999 362.02 132.902 370.435 129.467C378.85 126.033 388.167 125.452 396.947 127.816C405.726 130.18 413.479 135.355 419.008 142.544C424.536 149.732 427.533 158.533 427.534 167.586C427.556 174.891 425.616 182.07 421.916 188.379C418.216 194.688 412.889 199.899 406.487 203.472Z" fill="#C17B27"/>
<path id="Vector_146" opacity="0.2" d="M385.854 260.638C359.911 260.637 334.987 250.586 316.359 232.613C297.731 214.64 286.862 190.156 286.053 164.346C286.018 165.421 286.001 166.5 286 167.584C285.997 180.638 288.577 193.565 293.594 205.627C298.611 217.688 305.965 228.648 315.238 237.88C324.511 247.112 335.52 254.435 347.636 259.432C359.753 264.428 372.739 267 385.854 267C398.969 267 411.956 264.428 424.073 259.432C436.189 254.435 447.198 247.112 456.471 237.88C465.743 228.648 473.098 217.688 478.115 205.627C483.132 193.565 485.712 180.638 485.709 167.584C485.709 166.499 485.691 165.418 485.656 164.342C484.848 190.153 473.98 214.638 455.351 232.612C436.723 250.586 411.798 260.637 385.854 260.638V260.638Z" fill="black"/>
<path id="Vector_147" opacity="0.2" d="M386.143 117.989C376.289 117.99 366.657 120.899 358.464 126.349C350.27 131.798 343.885 139.544 340.114 148.606C336.343 157.668 335.357 167.639 337.279 177.259C339.202 186.879 343.947 195.715 350.915 202.651C357.883 209.587 366.761 214.31 376.425 216.224C386.09 218.137 396.108 217.155 405.212 213.402C414.316 209.649 422.098 203.293 427.572 195.137C433.047 186.982 435.97 177.394 435.971 167.586C435.956 154.436 430.702 141.83 421.36 132.532C412.019 123.234 399.354 118.004 386.143 117.989V117.989ZM406.487 203.472C398.567 207.922 389.395 209.652 380.388 208.394C371.381 207.136 363.041 202.961 356.657 196.513C350.272 190.065 346.199 181.704 345.066 172.722C343.934 163.739 345.805 154.636 350.39 146.817C354.975 138.999 362.02 132.902 370.435 129.467C378.85 126.033 388.167 125.453 396.947 127.816C405.726 130.18 413.479 135.356 419.008 142.544C424.537 149.732 427.533 158.533 427.534 167.586C427.556 174.891 425.616 182.07 421.916 188.379C418.216 194.688 412.889 199.899 406.487 203.472V203.472Z" fill="black"/>
<path id="Vector_148" d="M474.421 119.897V136.43C474.422 137.638 474.059 138.817 473.381 139.818C472.702 140.818 471.738 141.594 470.613 142.044C469.488 142.494 468.253 142.599 467.067 142.345C465.881 142.09 464.8 141.488 463.961 140.616V142.501C463.961 144.405 463.2 146.232 461.847 147.579C460.494 148.926 458.659 149.683 456.745 149.683C454.831 149.683 452.996 148.926 451.643 147.579C450.29 146.232 449.53 144.405 449.53 142.501V140.93C448.657 141.712 447.575 142.225 446.415 142.407C445.256 142.589 444.068 142.432 442.996 141.956C441.924 141.48 441.014 140.704 440.375 139.724C439.737 138.743 439.398 137.599 439.399 136.43L439.11 118.857V114.803C439.109 114.155 438.849 113.533 438.388 113.074C437.927 112.616 437.302 112.358 436.65 112.358C435.998 112.358 435.373 112.616 434.912 113.074C434.45 113.533 434.191 114.155 434.19 114.803V118.857L433.9 133.55C433.9 135.154 433.26 136.693 432.12 137.828C430.98 138.962 429.434 139.599 427.822 139.599C426.21 139.599 424.664 138.962 423.524 137.828C422.384 136.693 421.744 135.154 421.744 133.55L421 118.857V111.346C421 110.282 420.575 109.261 419.819 108.508C419.063 107.756 418.038 107.333 416.968 107.333C415.899 107.333 414.874 107.756 414.117 108.508C413.361 109.261 412.937 110.282 412.937 111.346V118.857L412.482 133.55C412.483 134.808 412.09 136.035 411.357 137.06C410.623 138.085 409.587 138.857 408.393 139.268C407.198 139.679 405.904 139.709 404.691 139.353C403.479 138.997 402.408 138.274 401.628 137.283C400.667 138.506 399.269 139.314 397.725 139.537C396.181 139.76 394.61 139.382 393.339 138.482V142.501C393.339 144.405 392.579 146.232 391.226 147.579C389.872 148.926 388.037 149.683 386.123 149.683C384.21 149.683 382.374 148.926 381.021 147.579C379.668 146.232 378.908 144.405 378.908 142.501V130.092C378.908 131.476 378.432 132.819 377.558 133.895C376.684 134.972 375.466 135.718 374.106 136.008C372.747 136.298 371.328 136.115 370.088 135.49C368.847 134.865 367.86 133.835 367.29 132.573V142.501C367.29 144.405 366.53 146.232 365.177 147.579C363.823 148.926 361.988 149.683 360.074 149.683C358.161 149.683 356.325 148.926 354.972 147.579C353.619 146.232 352.859 144.405 352.859 142.501V118.857H352.818V142.501C352.818 144.405 352.058 146.232 350.705 147.579C349.352 148.926 347.517 149.683 345.603 149.683C343.689 149.683 341.854 148.926 340.501 147.579C339.147 146.232 338.387 144.405 338.387 142.501V132.656C337.802 133.903 336.807 134.914 335.566 135.521C334.326 136.129 332.914 136.297 331.565 135.998C330.216 135.699 329.009 134.951 328.144 133.877C327.28 132.804 326.809 131.468 326.81 130.092V118.857H326.191V139.043C326.191 140.948 325.43 142.775 324.077 144.122C322.724 145.469 320.889 146.226 318.975 146.226C317.061 146.226 315.226 145.469 313.873 144.122C312.52 142.775 311.759 140.948 311.759 139.043V130.092C311.76 130.887 311.604 131.675 311.298 132.409C310.993 133.144 310.546 133.812 309.981 134.374C309.417 134.937 308.747 135.383 308.009 135.687C307.271 135.992 306.48 136.148 305.681 136.148C304.883 136.148 304.092 135.992 303.354 135.687C302.616 135.383 301.946 134.937 301.381 134.374C300.817 133.812 300.369 133.144 300.064 132.409C299.759 131.675 299.602 130.887 299.603 130.092V116.774C308.517 101.381 321.413 88.646 336.948 79.8953C352.483 71.1445 370.09 66.6972 387.937 67.016C405.785 67.3348 423.22 72.4081 438.43 81.7081C453.639 91.0081 466.067 104.195 474.421 119.897V119.897Z" fill="#EC0D56"/>
<path id="Vector_149" opacity="0.2" d="M345.603 146.226C344.655 146.226 343.717 146.04 342.842 145.679C341.966 145.318 341.171 144.789 340.501 144.122C339.831 143.455 339.299 142.663 338.937 141.792C338.574 140.921 338.387 139.987 338.387 139.043V142.789C338.387 144.693 339.148 146.52 340.501 147.867C341.854 149.214 343.689 149.971 345.603 149.971C347.517 149.971 349.352 149.214 350.705 147.867C352.058 146.52 352.819 144.693 352.819 142.789V139.043C352.819 139.987 352.632 140.921 352.269 141.792C351.907 142.663 351.375 143.455 350.705 144.122C350.035 144.789 349.24 145.318 348.364 145.679C347.489 146.04 346.551 146.226 345.603 146.226Z" fill="black"/>
<path id="Vector_150" opacity="0.2" d="M360.074 146.226C359.127 146.226 358.189 146.04 357.313 145.679C356.438 145.318 355.642 144.789 354.972 144.122C354.302 143.455 353.771 142.663 353.408 141.792C353.045 140.921 352.859 139.987 352.859 139.043V142.789C352.859 144.693 353.619 146.52 354.972 147.867C356.325 149.214 358.161 149.971 360.075 149.971C361.988 149.971 363.824 149.214 365.177 147.867C366.53 146.52 367.29 144.693 367.29 142.789V139.043C367.29 139.987 367.104 140.921 366.741 141.792C366.378 142.663 365.847 143.455 365.177 144.122C364.507 144.789 363.711 145.318 362.836 145.679C361.96 146.04 361.022 146.226 360.074 146.226V146.226Z" fill="black"/>
<path id="Vector_151" opacity="0.2" d="M338.387 129.199C337.802 130.446 336.807 131.456 335.566 132.064C334.326 132.671 332.914 132.84 331.565 132.541C330.216 132.242 329.009 131.494 328.144 130.42C327.28 129.346 326.809 128.011 326.81 126.635V130.38C326.809 131.756 327.28 133.092 328.144 134.165C329.009 135.239 330.216 135.987 331.565 136.286C332.914 136.585 334.326 136.417 335.566 135.809C336.807 135.202 337.802 134.191 338.387 132.944V129.199Z" fill="black"/>
<path id="Vector_152" opacity="0.2" d="M352.859 115.4H352.819V119.145H352.859V115.4Z" fill="black"/>
<path id="Vector_153" opacity="0.2" d="M311.76 126.635C311.758 128.239 311.117 129.776 309.977 130.909C308.838 132.043 307.293 132.679 305.682 132.679C304.071 132.679 302.526 132.043 301.386 130.909C300.246 129.776 299.605 128.239 299.604 126.635V130.38C299.605 131.984 300.246 133.521 301.386 134.655C302.526 135.788 304.071 136.424 305.682 136.424C307.293 136.424 308.838 135.788 309.977 134.655C311.117 133.521 311.758 131.984 311.76 130.38V126.635Z" fill="black"/>
<path id="Vector_154" opacity="0.2" d="M326.81 115.4H326.191V119.145H326.81V115.4Z" fill="black"/>
<path id="Vector_155" opacity="0.2" d="M318.975 142.768C318.028 142.768 317.089 142.583 316.214 142.222C315.338 141.861 314.543 141.332 313.873 140.665C313.203 139.998 312.671 139.206 312.309 138.335C311.946 137.463 311.76 136.529 311.76 135.586V139.331C311.76 141.236 312.52 143.063 313.873 144.41C315.226 145.757 317.061 146.514 318.975 146.514C320.889 146.514 322.724 145.757 324.077 144.41C325.431 143.063 326.191 141.236 326.191 139.331V135.586C326.191 136.529 326.004 137.463 325.642 138.335C325.279 139.206 324.748 139.998 324.077 140.665C323.407 141.332 322.612 141.861 321.736 142.222C320.861 142.583 319.923 142.768 318.975 142.768V142.768Z" fill="black"/>
<path id="Vector_156" opacity="0.2" d="M386.123 146.226C385.176 146.226 384.237 146.04 383.362 145.679C382.486 145.318 381.691 144.789 381.021 144.122C380.351 143.455 379.819 142.663 379.457 141.792C379.094 140.921 378.908 139.987 378.908 139.043V142.789C378.908 144.693 379.668 146.52 381.021 147.867C382.374 149.214 384.21 149.971 386.123 149.971C388.037 149.971 389.872 149.214 391.226 147.867C392.579 146.52 393.339 144.693 393.339 142.789V139.043C393.339 139.987 393.152 140.921 392.79 141.792C392.427 142.663 391.896 143.455 391.226 144.122C390.556 144.789 389.76 145.318 388.885 145.679C388.009 146.04 387.071 146.226 386.123 146.226Z" fill="black"/>
<path id="Vector_157" opacity="0.2" d="M439.11 111.346C439.11 110.697 438.851 110.074 438.389 109.615C437.928 109.156 437.302 108.898 436.65 108.898C435.997 108.898 435.371 109.156 434.91 109.615C434.449 110.074 434.189 110.697 434.189 111.346V115.092C434.189 114.77 434.252 114.451 434.376 114.153C434.499 113.856 434.68 113.585 434.909 113.358C435.137 113.13 435.409 112.949 435.707 112.826C436.006 112.702 436.326 112.639 436.65 112.639C436.973 112.639 437.293 112.702 437.592 112.826C437.891 112.949 438.162 113.13 438.391 113.358C438.619 113.585 438.8 113.856 438.924 114.153C439.047 114.451 439.11 114.77 439.11 115.092V111.346Z" fill="black"/>
<path id="Vector_158" opacity="0.2" d="M378.908 126.635C378.909 128.019 378.432 129.362 377.558 130.438C376.685 131.515 375.466 132.26 374.107 132.551C372.747 132.841 371.329 132.658 370.088 132.033C368.848 131.408 367.86 130.378 367.29 129.116V132.861C367.86 134.123 368.848 135.153 370.088 135.778C371.329 136.403 372.747 136.586 374.107 136.296C375.466 136.006 376.685 135.26 377.558 134.183C378.432 133.107 378.909 131.764 378.908 130.38V126.635Z" fill="black"/>
<path id="Vector_159" opacity="0.2" d="M427.822 136.142C427.024 136.142 426.233 135.986 425.496 135.682C424.758 135.378 424.088 134.932 423.524 134.37C422.96 133.809 422.512 133.142 422.206 132.408C421.901 131.674 421.744 130.887 421.744 130.092L421 115.4V119.145L421.744 133.837C421.744 135.442 422.384 136.981 423.524 138.115C424.664 139.25 426.21 139.887 427.822 139.887C429.434 139.887 430.98 139.25 432.12 138.115C433.26 136.981 433.9 135.442 433.9 133.837L434.19 119.145V115.4L433.9 130.092C433.9 130.887 433.743 131.674 433.438 132.408C433.132 133.142 432.685 133.809 432.12 134.37C431.556 134.932 430.886 135.378 430.148 135.682C429.411 135.986 428.62 136.142 427.822 136.142V136.142Z" fill="black"/>
<path id="Vector_160" opacity="0.2" d="M468.343 139.023C467.524 139.023 466.713 138.858 465.96 138.538C465.207 138.218 464.526 137.749 463.961 137.159V139.043C463.961 140.948 463.2 142.775 461.847 144.122C460.494 145.469 458.659 146.225 456.745 146.225C454.831 146.225 452.996 145.469 451.643 144.122C450.29 142.775 449.529 140.948 449.529 139.043V137.473C448.657 138.255 447.575 138.767 446.415 138.949C445.256 139.131 444.068 138.975 442.996 138.499C441.924 138.022 441.013 137.247 440.375 136.266C439.737 135.286 439.398 134.142 439.399 132.973L439.11 115.4V119.145L439.399 136.718C439.398 137.887 439.737 139.031 440.375 140.012C441.013 140.992 441.924 141.768 442.996 142.244C444.068 142.72 445.256 142.877 446.415 142.695C447.575 142.513 448.657 142 449.529 141.218V142.789C449.529 144.693 450.29 146.52 451.643 147.867C452.996 149.214 454.831 149.971 456.745 149.971C458.659 149.971 460.494 149.214 461.847 147.867C463.2 146.52 463.961 144.693 463.961 142.789V140.904C464.799 141.776 465.881 142.378 467.067 142.633C468.252 142.887 469.487 142.782 470.613 142.332C471.738 141.882 472.702 141.106 473.381 140.106C474.059 139.105 474.422 137.926 474.421 136.718V132.973C474.421 133.768 474.264 134.554 473.958 135.289C473.653 136.023 473.205 136.69 472.641 137.251C472.076 137.813 471.406 138.259 470.669 138.563C469.931 138.867 469.141 139.023 468.343 139.023V139.023Z" fill="black"/>
<path id="Vector_161" opacity="0.2" d="M406.404 136.142C405.484 136.142 404.575 135.934 403.748 135.532C402.92 135.131 402.195 134.548 401.628 133.826C400.667 135.049 399.269 135.856 397.725 136.08C396.181 136.303 394.61 135.925 393.339 135.024V138.77C394.61 139.67 396.181 140.048 397.725 139.825C399.269 139.602 400.667 138.794 401.628 137.571C402.408 138.561 403.479 139.285 404.691 139.641C405.904 139.997 407.198 139.967 408.392 139.556C409.587 139.145 410.623 138.373 411.356 137.348C412.09 136.323 412.483 135.096 412.482 133.837L412.937 119.145V115.4L412.482 130.092C412.482 130.887 412.325 131.674 412.02 132.408C411.714 133.142 411.266 133.809 410.702 134.37C410.138 134.932 409.468 135.378 408.73 135.682C407.993 135.986 407.202 136.142 406.404 136.142Z" fill="black"/>
<path id="Vector_162" opacity="0.2" d="M421 107.889C421 106.825 420.575 105.804 419.819 105.051C419.063 104.299 418.038 103.876 416.968 103.876C415.899 103.876 414.874 104.299 414.118 105.051C413.361 105.804 412.937 106.825 412.937 107.889V111.634C412.937 110.57 413.361 109.549 414.118 108.797C414.874 108.044 415.899 107.621 416.968 107.621C418.038 107.621 419.063 108.044 419.819 108.797C420.575 109.549 421 110.57 421 111.634V107.889Z" fill="black"/>
<path id="Vector_163" d="M353.583 108.629H352.136V116.408H353.583V108.629Z" fill="#3F3D56"/>
<path id="Vector_164" d="M380.934 104.452H379.487V112.231H380.934V104.452Z" fill="#3F3D56"/>
<path id="Vector_165" d="M346.202 134.99H344.755V142.768H346.202V134.99Z" fill="#3F3D56"/>
<path id="Vector_166" d="M405.314 121.398L404.124 120.578L399.677 126.975L400.868 127.795L405.314 121.398Z" fill="#3F3D56"/>
<path id="Vector_167" d="M328.681 109.108L327.783 110.238L333.911 115.064L334.809 113.935L328.681 109.108Z" fill="#3F3D56"/>
<path id="Vector_168" d="M413.774 80.0112L412.876 81.1408L419.005 85.9672L419.903 84.8376L413.774 80.0112Z" fill="#3F3D56"/>
<path id="Vector_169" d="M312.762 117.175L311.864 118.305L317.993 123.131L318.891 122.002L312.762 117.175Z" fill="#3F3D56"/>
<path id="Vector_170" d="M358.937 90.3354H357.49V98.1139H358.937V90.3354Z" fill="white"/>
<path id="Vector_171" d="M319.285 130.38H317.838V138.159H319.285V130.38Z" fill="white"/>
<path id="Vector_172" d="M387.012 79.0999H385.565V86.8784H387.012V79.0999Z" fill="white"/>
<path id="Vector_173" d="M395.055 106.34L393.761 105.694L390.257 112.647L391.55 113.293L395.055 106.34Z" fill="white"/>
<path id="Vector_174" d="M388.398 135.15L387.104 134.504L383.6 141.456L384.894 142.102L388.398 135.15Z" fill="white"/>
<path id="Vector_175" d="M368.505 119.339L367.545 120.417L373.392 125.577L374.352 124.499L368.505 119.339Z" fill="white"/>
<path id="Vector_176" d="M339.851 85.6322L338.891 86.7101L344.738 91.8703L345.698 90.7924L339.851 85.6322Z" fill="white"/>
<path id="Vector_177" d="M435.074 98.5961L434.114 99.674L439.962 104.834L440.922 103.756L435.074 98.5961Z" fill="white"/>
<path id="Vector_178" d="M400.053 73.2443L399.093 74.3221L404.94 79.4822L405.901 78.4043L400.053 73.2443Z" fill="white"/>
<path id="Vector_179" d="M369.936 104.452H368.488V112.231H369.936V104.452Z" fill="#FF6584"/>
<path id="Vector_180" d="M451.578 109.364L450.246 108.801L447.192 115.961L448.524 116.524L451.578 109.364Z" fill="#FF6584"/>
<path id="Vector_181" d="M340.968 117.001L339.714 117.721L343.622 124.458L344.875 123.737L340.968 117.001Z" fill="#FF6584"/>
<path id="Vector_182" d="M423.746 111.527L422.492 112.247L426.4 118.984L427.653 118.264L423.746 111.527Z" fill="#FF6584"/>
<path id="Vector_183" d="M372.227 83.0065L370.974 83.7267L374.881 90.4631L376.135 89.7428L372.227 83.0065Z" fill="#FF6584"/>
<path id="Vector_184" d="M433.586 81.5656L432.333 82.2858L436.24 89.0221L437.494 88.3019L433.586 81.5656Z" fill="#FF6584"/>
<path id="Vector_185" d="M353.992 75.2275L352.739 75.9478L356.646 82.6842L357.899 81.9639L353.992 75.2275Z" fill="#FF6584"/>
<path id="Vector_186" d="M406.115 88.895H404.668V96.6735H406.115V88.895Z" fill="#FF6584"/>
<path id="Vector_187" d="M322.758 101.859H321.311V109.638H322.758V101.859Z" fill="#FF6584"/>
</g>
<g id="J&#226;&#128;&#153;D nut">
<text fill="url(#paint0_angular_8_2)" xml:space="preserve" style="white-space: pre" font-family="SirinStencil" font-size="144" letter-spacing="0em"><tspan x="639.047" y="267.438">t</tspan></text>
<text fill="url(#paint1_angular_8_2)" xml:space="preserve" style="white-space: pre" font-family="SirinStencil" font-size="144" letter-spacing="0em"><tspan x="565.641" y="267.438">u</tspan></text>
<text fill="url(#paint2_angular_8_2)" xml:space="preserve" style="white-space: pre" font-family="SirinStencil" font-size="144" letter-spacing="0em"><tspan x="492.656" y="267.438">n</tspan></text>
<text fill="url(#paint3_angular_8_2)" xml:space="preserve" style="white-space: pre" font-family="SirinStencil" font-size="144" letter-spacing="0em"><tspan x="196.359" y="267.438">D</tspan></text>
<text fill="url(#paint4_angular_8_2)" xml:space="preserve" style="white-space: pre" font-family="SirinStencil" font-size="144" letter-spacing="0em"><tspan x="107.906" y="267.438">J&#x2019;</tspan><tspan x="282.984" y="267.438">       </tspan></text>
<text fill="url(#paint5_linear_8_2)" xml:space="preserve" style="white-space: pre" font-family="SirinStencil" font-size="144" letter-spacing="0em"><tspan x="48" y="267.438">  </tspan></text>
<text stroke="black" xml:space="preserve" style="white-space: pre" font-family="SirinStencil" font-size="144" letter-spacing="0em"><tspan x="639.047" y="267.438">t</tspan></text>
<text stroke="black" xml:space="preserve" style="white-space: pre" font-family="SirinStencil" font-size="144" letter-spacing="0em"><tspan x="565.641" y="267.438">u</tspan></text>
<text stroke="black" xml:space="preserve" style="white-space: pre" font-family="SirinStencil" font-size="144" letter-spacing="0em"><tspan x="492.656" y="267.438">n</tspan></text>
<text stroke="black" xml:space="preserve" style="white-space: pre" font-family="SirinStencil" font-size="144" letter-spacing="0em"><tspan x="196.359" y="267.438">D</tspan></text>
<text stroke="black" xml:space="preserve" style="white-space: pre" font-family="SirinStencil" font-size="144" letter-spacing="0em"><tspan x="107.906" y="267.438">J&#x2019;</tspan><tspan x="282.984" y="267.438">       </tspan></text>
<text stroke="black" xml:space="preserve" style="white-space: pre" font-family="SirinStencil" font-size="144" letter-spacing="0em"><tspan x="48" y="267.438">  </tspan></text>
</g>
</g>
<defs>
<radialGradient id="paint0_angular_8_2" cx="0" cy="0" r="1" gradientUnits="userSpaceOnUse" gradientTransform="translate(396.878 263.874) rotate(89.7212) scale(25.1266 92.7941)">
<stop offset="0.583643" stop-color="#C12727"/>
<stop offset="0.988837" stop-color="#ECC80D"/>
</radialGradient>
<radialGradient id="paint1_angular_8_2" cx="0" cy="0" r="1" gradientUnits="userSpaceOnUse" gradientTransform="translate(396.878 263.874) rotate(89.7212) scale(25.1266 92.7941)">
<stop offset="0.0140149" stop-color="#1E92FC"/>
<stop offset="0.340072" stop-color="#ECBB0D"/>
</radialGradient>
<radialGradient id="paint2_angular_8_2" cx="0" cy="0" r="1" gradientUnits="userSpaceOnUse" gradientTransform="translate(396.878 263.874) rotate(89.7212) scale(25.1266 92.7941)">
<stop offset="0.176146" stop-color="#FCCB1E"/>
<stop offset="0.824995" stop-color="#EC0D56"/>
</radialGradient>
<radialGradient id="paint3_angular_8_2" cx="0" cy="0" r="1" gradientUnits="userSpaceOnUse" gradientTransform="translate(396.878 263.874) rotate(89.7212) scale(25.1266 92.7941)">
<stop offset="0.18915" stop-color="#21A226"/>
<stop offset="0.471639" stop-color="#00C7F9"/>
</radialGradient>
<radialGradient id="paint4_angular_8_2" cx="0" cy="0" r="1" gradientUnits="userSpaceOnUse" gradientTransform="translate(396.878 263.874) rotate(89.7212) scale(25.1266 92.7941)">
<stop offset="0.230492" stop-color="#A00404" stop-opacity="0"/>
<stop offset="0.314019" stop-color="#FCCB1E"/>
</radialGradient>
<linearGradient id="paint5_linear_8_2" x1="397" y1="100" x2="397" y2="289" gradientUnits="userSpaceOnUse">
<stop stop-color="#21A226"/>
<stop offset="1" stop-opacity="0"/>
</linearGradient>
</defs>
</svg>
